# AST/ASF file generated using VICON BodyLanguage
# -----------------------------------------------
:version 1.10
:name VICON
:units
  mass 1.0
  length 0.45
  angle deg
:documentation
   .ast/.asf automatically generated from VICON data using
   VICON BodyBuilder and BodyLanguage model FoxedUp or BRILLIANT.MOD
:root
   order TX TY TZ RX RY RZ
   axis XYZ
   position 0 0 0  
   orientation 0 0 0 
:bonedata
  begin
     id 1 
     name lhipjoint
     direction 0.523584 -0.783993 0.333487 
     length 2.44404 
     axis 0 0 0  XYZ
  end
  begin
     id 2 
     name lfemur
     direction 0.34202 -0.939693 0  
     length 7.29523  
     axis 0 0 20  XYZ
    dof rx ry rz
    limits (-160.0 20.0)
           (-70.0 70.0)
           (-60.0 70.0)
  end
  begin
     id 3 
     name ltibia
     direction 0.34215 -0.939645 0   
     length 7.81194   
     axis 0 0 20   XYZ
    dof rx
    limits (-10.0 170.0)
  end
  begin
     id 4 
     name lfoot
     direction 0.0941847 -0.25877 0.961336   
     length 2.41437   
     axis -90 7.62852e-016 20   XYZ
    dof rx rz
    limits (-45.0 90.0)
           (-70.0 20.0)
  end
  begin
     id 5 
     name ltoes
     direction 1.53526e-011 -4.21768e-011 1   
     length 1.2048   
     axis -90 7.62852e-016 20   XYZ
    dof rx
    limits (-90.0 20.0)
  end
  begin
     id 6 
     name rhipjoint
     direction -0.46599 -0.814191 0.346332   
     length 2.35339  
     axis 0 0 0  XYZ 
  end
  begin
     id 7 
     name rfemur
     direction -0.34202 -0.939693 0   
     length 7.34966   
     axis 0 0 -20   XYZ
    dof rx ry rz
    limits (-160.0 20.0)
           (-70.0 70.0)
           (-70.0 60.0)
  end
  begin
     id 8 
     name rtibia
     direction -0.34202 -0.939693 0   
     length 7.89934   
     axis 0 0 -20   XYZ
    dof rx
    limits (-10.0 170.0)
 end
 begin
     id 9 
     name rfoot
     direction -0.0975468 -0.268008 0.958466   
     length 2.27725  
     axis -90 -7.62852e-016 -20   XYZ
    dof rx rz
    limits (-45.0 90.0)
           (-20.0 70.0)
  end
  begin
     id 10 
     name rtoes
     direction -1.53563e-011 -4.22022e-011 1   
     length 1.13683   
     axis -90 -7.62852e-016 -20   XYZ
    dof rx
    limits (-90.0 20.0)
  end
  begin
     id 11 
     name lowerback
     direction -0.00456414 0.999242 -0.0386661   
     length 2.16968   
     axis 0 0 0   XYZ
    dof rx ry rz
    limits (-20.0 45.0)
           (-30.0 30.0)
           (-30.0 30.0)
  end
  begin
     id 12 
     name upperback
     direction 0.0297078 0.998988 0.0337799   
     length 2.15674   
     axis 0 0 0   XYZ
    dof rx ry rz
    limits (-20.0 45.0)
           (-30.0 30.0)
           (-30.0 30.0)
  end
  begin
     id 13 
     name thorax
     direction 0.0309305 0.998202 0.0513506   
     length 2.16319   
     axis 0 0 0   XYZ
    dof rx ry rz
    limits (-20.0 45.0)
           (-30.0 30.0)
           (-30.0 30.0)
  end
  begin
     id 14 
     name lowerneck
     direction -0.103039 0.983474 0.148872   
     length 1.64318   
     axis 0 0 0   XYZ
    dof rx ry rz
    limits (-20.0 45.0)
           (-30.0 30.0)
           (-30.0 30.0)
  end
  begin
     id 15 
     name upperneck
     direction 0.128124 0.971079 -0.201469   
     length 1.68242   
     axis 0 0 0   XYZ
    dof rx ry rz
    limits (-20.0 45.0)
           (-30.0 30.0)
           (-30.0 30.0)
  end
  begin
     id 16
     name head
     direction 0.0496365 0.994919 -0.0875941  
     length 1.70108  
     axis 0 0 0   XYZ
    dof rx ry rz
    limits (-20.0 45.0)
           (-30.0 30.0)
           (-30.0 30.0)
  end
  begin
     id 17 
     name lclavicle
     direction 0.887148 0.430222 -0.166967  
     length 3.25763  
     axis 0 0 0   XYZ
    dof ry rz
    limits (-20.0 10.0)
           (0.0 20.0)
  end
  begin
     id 18 
     name lhumerus
     direction 1 -4.48962e-011 1.92156e-027   
     length 5.10755   
     axis 180 -30 -90   XYZ
    dof rx ry rz
    limits (-60.0 90.0)
           (-90.0 90.0)
           (-90.0 90.0)
  end
  begin
     id 19
     name lradius
     direction 1 -4.48958e-011 7.10963e-027   
     length 3.36253   
     axis 180 -30 -90   XYZ
    dof rx
    limits (-10.0 170.0)
  end
  begin
     id 20
     name lwrist
     direction 1 -4.48946e-011 1.82396e-026   
     length 1.68127   
     axis -1.15222e-014 90 90   XYZ
    dof ry
    limits (-180.0 0.0)
 end
  begin
     id 21 
     name lhand
     direction 1 -4.48919e-011 3.64759e-026   
     length 0.619088   
     axis -2.32787e-014 90 90   XYZ
    dof rx rz
    limits (-90.0 90.0)
           (-45.0 45.0)
  end
  begin
     id 22 
     name lfingers
     direction 1 -4.49012e-011 7.29744e-026   
     length 0.499125   
     axis -4.6558e-014 90 90   XYZ
    dof rx
    limits (0.0 90.0)
  end
  begin
     id 23
     name lthumb
     direction 0.707107 -6.35028e-011 0.707107   
     length 0.716646   
     axis -90 45 3.78391e-014   XYZ
    dof rx rz
    limits (-45.0 45.0)
           (-45.0 45.0)
  end
  begin
     id 24 
     name rclavicle
     direction -0.82886 0.533198 -0.169384   
     length 3.20647  
     axis 0 0 0   XYZ 
    dof ry rz
    limits (-10.0 20.0)
           (-20.0 0.0)
  end
  begin
     id 25 
     name rhumerus
     direction -1 -4.48973e-011 3.06863e-027  
     length 5.27387   
     axis 180 30 90   XYZ
    dof rx ry rz
    limits (-90.0 60.0)
           (-90.0 90.0)
           (-90.0 90.0)
  end
  begin
     id 26 
     name rradius
     direction -1 -4.48988e-011 9.4797e-027   
     length 3.40144   
     axis 180 30 90   XYZ
    dof rx
    limits (-10.0 170.0)
  end
  begin
     id 27 
     name rwrist
     direction -1 -4.48897e-011 1.82366e-026   
     length 1.70072   
     axis -1.15222e-014 -90 -90   XYZ
    dof ry
    limits (-180.0 0.0)
  end
  begin
     id 28
     name rhand
     direction -1 -4.48965e-011 3.64815e-026   
     length 0.742821   
     axis -2.32787e-014 -90 -90   XYZ
    dof rx rz
    limits (-90.0 90.0)
           (-45.0 45.0)
  end
  begin
     id 29
     name rfingers
     direction -1 -4.49016e-011 7.29754e-026   
     length 0.598881   
     axis -4.6558e-014 -90 -90   XYZ
    dof rx
    limits (0.0 90.0)
  end
  begin
     id 30
     name rthumb
     direction -0.707107 -6.3488e-011 0.707107   
     length 0.859877   
     axis -90 -45 -3.78391e-014   XYZ
    dof rx rz
    limits (-45.0 45.0)
           (-45.0 45.0)
  end
:hierarchy
  begin
    root lhipjoint rhipjoint lowerback
    lhipjoint lfemur
    lfemur ltibia
    ltibia lfoot
    lfoot ltoes
    rhipjoint rfemur
    rfemur rtibia
    rtibia rfoot
    rfoot rtoes
    lowerback upperback
    upperback thorax
    thorax lowerneck lclavicle rclavicle
    lowerneck upperneck
    upperneck head
    lclavicle lhumerus
    lhumerus lradius
    lradius lwrist
    lwrist lhand lthumb
    lhand lfingers
    rclavicle rhumerus
    rhumerus rradius
    rradius rwrist
    rwrist rhand rthumb
    rhand rfingers
  end

#!OML:ASF F:\Work\Patient Classification 1\justin\Session 1\justin.ASF
:FULLY-SPECIFIED
:DEGREES
2695
root -4.34431 17.866 -16.2396 354.187 -172.42 -361.086
lowerback 12.4235 1.04683 -3.92356
upperback 1.08948 0.833896 1.9832
thorax -5.91727 0.474265 4.17787
lowerneck -15.3797 2.06749 -13.1807
upperneck 38.1164 1.82648 4.98548
head 15.8949 -1.76887 4.45673
rclavicle -5.96354e-015 -3.18055e-015
rhumerus -28.8619 -7.35808 -76.5682
rradius 32.2606
rwrist 2.06694
rhand -22.3137 16.2314
rfingers 7.12502
rthumb 4.10582 -13.7088
lclavicle -5.96354e-015 -3.18055e-015
lhumerus -37.9055 6.02042 86.2116
lradius 37.3972
lwrist -1.07118
lhand -11.7174 26.6375
lfingers 7.12502
lthumb 14.3293 56.123
rfemur -11.9577 -18.2811 14.8222
rtibia 64.7969
rfoot -8.31986 -7.4202
rtoes -12.7112
lfemur -9.04654 9.19421 -26.3084
ltibia 30.1304
lfoot -12.4429 1.42228
ltoes -6.27169
2696
root -4.30163 17.865 -16.3065 354.336 -171.237 -360.856
lowerback 12.497 0.941554 -3.65503
upperback 0.514944 0.764201 2.02015
thorax -6.55816 0.473652 4.07768
lowerneck -13.7766 2.58311 -13.091
upperneck 37.9164 2.23238 4.87704
head 15.3515 -1.62946 4.40175
rclavicle 3.67068e-014 -8.34896e-015
rhumerus -30.4555 -7.40074 -76.4219
rradius 32.238
rwrist 2.33648
rhand -21.7273 15.8054
rfingers 7.12502
rthumb 4.67212 -14.1231
lclavicle 3.67068e-014 -8.34896e-015
lhumerus -38.8703 5.84188 86.1956
lradius 38.3533
lwrist -0.259406
lhand -12.0256 26.8574
lfingers 7.12502
lthumb 14.0324 56.3637
rfemur -12.5366 -17.8085 15.0433
rtibia 64.5131
rfoot -9.14083 -7.90311
rtoes -14.8863
lfemur -9.01964 8.41947 -26.005
ltibia 30.1491
lfoot -12.6042 0.929852
ltoes -6.57475
2697
root -4.26696 17.8545 -16.3818 354.401 -169.97 -361.047
lowerback 12.1178 1.0913 -3.70264
upperback 1.31918 0.930737 2.10077
thorax -5.51187 0.49986 4.15994
lowerneck -15.8781 2.18527 -13.0831
upperneck 38.0971 2.4854 4.3854
head 15.9522 -1.50152 4.30795
rclavicle -2.22142e-014 -9.54166e-015
rhumerus -29.2237 -8.40455 -76.0438
rradius 31.8166
rwrist 3.00604
rhand -20.8833 14.3093
rfingers 7.12502
rthumb 5.487 -15.5997
lclavicle -2.22142e-014 -9.54166e-015
lhumerus -36.8566 5.75898 86.9314
lradius 38.6858
lwrist 0.872665
lhand -13.6445 24.4129
lfingers 7.12502
lthumb 12.4718 54.0207
rfemur -12.6786 -17.3752 14.5755
rtibia 64.0986
rfoot -10.0234 -8.07581
rtoes -13.9373
lfemur -8.78838 7.92151 -26.1419
ltibia 30.1595
lfoot -12.8814 0.130414
ltoes -7.11823
2698
root -4.22958 17.8419 -16.4603 354.442 -168.589 -361.699
lowerback 11.9134 1.21203 -4.24408
upperback 1.75088 1.0025 1.99838
thorax -4.95783 0.514622 4.3484
lowerneck -17.5375 2.21023 -13.4502
upperneck 38.7938 3.01654 4.5656
head 16.6511 -1.32571 4.62226
rclavicle -1.72446e-014 -4.77083e-015
rhumerus -28.7362 -9.17935 -75.7071
rradius 31.137
rwrist 3.41685
rhand -21.0705 15.0023
rfingers 7.12502
rthumb 5.30624 -14.9113
lclavicle -1.72446e-014 -4.77083e-015
lhumerus -35.7609 5.50775 87.4068
lradius 38.9727
lwrist 1.94684
lhand -15.8119 20.4525
lfingers 7.12502
lthumb 10.3816 50.1762
rfemur -12.6205 -16.9165 13.5209
rtibia 63.5724
rfoot -11.0994 -8.06766
rtoes -12.3728
lfemur -8.3988 7.5132 -26.739
ltibia 30.14
lfoot -13.0905 -0.761916
ltoes -7.10915
2699
root -4.18771 17.8447 -16.5286 354.555 -167.231 -362.053
lowerback 11.8841 1.18199 -4.54823
upperback 1.69114 0.928675 1.90553
thorax -4.99979 0.489395 4.43525
lowerneck -17.6704 2.43843 -13.4013
upperneck 39.1101 3.37422 4.58044
head 16.804 -1.19499 4.69906
rclavicle -3.82164e-014 -7.15625e-015
rhumerus -29.2357 -9.64397 -75.4914
rradius 30.525
rwrist 3.89167
rhand -21.8022 16.9579
rfingers 7.12502
rthumb 4.59973 -12.9722
lclavicle -3.82164e-014 -7.15625e-015
lhumerus -35.7966 5.40793 87.4727
lradius 40.3455
lwrist 1.49023
lhand -14.3129 22.0083
lfingers 7.12502
lthumb 11.8274 51.6543
rfemur -12.9614 -16.2612 12.9415
rtibia 62.9116
rfoot -11.7097 -8.32118
rtoes -13.3993
lfemur -8.16799 7.01191 -27.0073
ltibia 30.0402
lfoot -13.0734 -1.48805
ltoes -6.92901
2700
root -4.14305 17.8524 -16.5946 354.719 -165.835 -362.14
lowerback 11.9747 1.12606 -4.56561
upperback 1.48052 0.860857 1.88046
thorax -5.26446 0.474394 4.42942
lowerneck -17.4075 2.63718 -13.2156
upperneck 39.205 3.67468 4.2944
head 16.7657 -1.09415 4.58327
rclavicle 4.47266e-016 1.51076e-014
rhumerus -29.9848 -10.2766 -75.1651
rradius 29.8512
rwrist 4.8623
rhand -22.3671 18.468
rfingers 7.12502
rthumb 4.05428 -11.4732
lclavicle 4.47266e-016 1.51076e-014
lhumerus -36.1993 5.28387 87.486
lradius 43.0631
lwrist -1.37708
lhand -7.12681 30.8132
lfingers 7.12502
lthumb 18.7489 59.9297
rfemur -13.3905 -15.454 12.7169
rtibia 62.0576
rfoot -12.0887 -8.63254
rtoes -14.239
lfemur -8.084 6.43534 -26.9794
ltibia 29.9282
lfoot -12.9001 -2.18636
ltoes -6.45369
2701
root -4.0991 17.8547 -16.6741 354.803 -164.313 -362.188
lowerback 11.8172 1.10639 -4.5677
upperback 1.58192 0.84143 1.91854
thorax -5.06828 0.456709 4.47425
lowerneck -18.1678 2.70629 -13.8393
upperneck 39.6375 4.10007 4.61438
head 17.1111 -0.989666 4.9591
rclavicle 2.57923e-014 -2.22639e-014
rhumerus -30.0909 -10.8266 -74.9097
rradius 29.5604
rwrist 4.50173
rhand -21.8419 17.6706
rfingers 7.12502
rthumb 4.56147 -12.2603
lclavicle 2.57923e-014 -2.22639e-014
lhumerus -36.0383 3.93223 88.5236
lradius 43.9098
lwrist 3.37792
lhand -12.1092 29.3491
lfingers 7.12502
lthumb 13.9517 58.861
rfemur -13.4406 -14.7331 12.4454
rtibia 61.04
rfoot -12.5138 -8.86305
rtoes -13.3798
lfemur -7.87749 5.92041 -26.8683
ltibia 29.9243
lfoot -12.8685 -3.09555
ltoes -5.47323
2702
root -4.05163 17.8539 -16.7461 354.892 -162.804 -362.095
lowerback 11.6202 1.06305 -4.47744
upperback 1.73802 0.801604 1.98412
thorax -4.78962 0.422416 4.49866
lowerneck -17.6404 2.76701 -12.4728
upperneck 38.8972 4.3407 3.02398
head 16.6709 -0.811249 4.00782
rclavicle 1.45361e-014 -2.22639e-014
rhumerus -30.0149 -11.5036 -74.6746
rradius 29.1001
rwrist 4.36006
rhand -21.3227 17.3264
rfingers 7.12502
rthumb 5.06281 -12.5931
lclavicle 1.45361e-014 -2.22639e-014
lhumerus -35.6572 3.36056 88.9098
lradius 44.488
lwrist 4.62262
lhand -12.6297 28.3235
lfingers 7.12502
lthumb 13.4501 57.8693
rfemur -13.4578 -13.9303 12.3705
rtibia 59.9045
rfoot -12.844 -9.09272
rtoes -13.6031
lfemur -7.82468 5.45115 -26.5869
ltibia 30.0385
lfoot -13.0192 -4.12523
ltoes -5.00448
2703
root -3.99437 17.8449 -16.8007 355.074 -161.39 -362.019
lowerback 11.8686 1.05659 -4.36394
upperback 1.54795 0.807478 1.99602
thorax -5.12701 0.440774 4.44575
lowerneck -18.07 2.8912 -12.8109
upperneck 39.3558 4.59421 3.4533
head 16.9631 -0.730055 4.33525
rclavicle -2.03754e-015 -2.38542e-015
rhumerus -30.5553 -12.2234 -74.3772
rradius 28.6991
rwrist 4.45621
rhand -21.1642 17.4083
rfingers 7.12502
rthumb 5.21576 -12.5075
lclavicle -2.03754e-015 -2.38542e-015
lhumerus -35.8689 2.52076 89.2352
lradius 45.6419
lwrist 5.56542
lhand -12.3047 29.1857
lfingers 7.12502
lthumb 13.7633 58.7105
rfemur -13.5692 -12.8399 12.3694
rtibia 58.6245
rfoot -13.0897 -9.23635
rtoes -16.375
lfemur -8.18152 4.85036 -26.3208
ltibia 30.6049
lfoot -13.342 -5.01969
ltoes -4.76822
2704
root -3.9368 17.8347 -16.8528 355.427 -159.85 -362.124
lowerback 11.9943 1.01118 -4.41647
upperback 1.35572 0.745655 1.97339
thorax -5.39332 0.427791 4.46217
lowerneck -18.1982 3.01069 -13.1232
upperneck 39.6625 4.73298 3.97912
head 17.1038 -0.662446 4.6723
rclavicle -4.02539e-015 -1.59028e-014
rhumerus -31.1733 -12.774 -74.1488
rradius 28.337
rwrist 4.66727
rhand -21.8234 17.926
rfingers 7.12502
rthumb 4.57928 -12.0045
lclavicle -4.02539e-015 -1.59028e-014
lhumerus -35.9635 1.81273 89.5414
lradius 46.5405
lwrist 6.42372
lhand -12.6666 28.068
lfingers 7.12502
lthumb 13.4146 57.6161
rfemur -13.7139 -11.7579 12.1422
rtibia 57.2516
rfoot -13.2887 -9.3373
rtoes -19.0459
lfemur -8.63211 4.07111 -26.273
ltibia 31.1365
lfoot -13.6191 -5.87262
ltoes -4.45881
2705
root -3.82682 17.8582 -16.8551 355.41 -159.956 -359.234
lowerback 11.9773 1.32678 -2.13471
upperback 1.03723 1.50866 2.85689
thorax -5.76879 0.768214 3.97151
lowerneck -18.1831 3.10554 -12.8963
upperneck 39.6004 4.96819 3.69369
head 17.0613 -0.546847 4.54671
rclavicle 4.53478e-014 -1.11319e-014
rhumerus -31.5052 -13.4496 -73.878
rradius 28.3887
rwrist 4.12735
rhand -21.6648 17.8381
rfingers 7.12502
rthumb 4.73242 -12.089
lclavicle 4.53478e-014 -1.11319e-014
lhumerus -35.7801 1.12833 89.9219
lradius 47.8747
lwrist 6.77398
lhand -12.5167 28.1706
lfingers 7.12502
lthumb 13.5591 57.7091
rfemur -15.3242 -8.09449 16.0842
rtibia 55.7117
rfoot -13.303 -10.8003
rtoes -18.7425
lfemur -10.1625 3.91057 -22.8169
ltibia 31.3884
lfoot -13.3279 -6.1255
ltoes -4.97833
